<?xml version="1.0" encoding="UTF-8" standalone="no"?>
<!-- Created with Inkscape (http://www.inkscape.org/) -->

<svg
   width="225mm"
   height="65mm"
   viewBox="0 0 225 65"
   version="1.1"
   id="svg1"
   xml:space="preserve"
   xmlns:xlink="http://www.w3.org/1999/xlink"
   xmlns="http://www.w3.org/2000/svg"
   xmlns:svg="http://www.w3.org/2000/svg"><defs
     id="defs1"><clipPath
       clipPathUnits="userSpaceOnUse"
       id="clipPath85"><path
         d="m 65.475574,26.449979 c -0.475576,0 -1.441223,0.550018 -1.475576,5.55002 -0.03435,5.000002 1,6.000002 1.507255,6.000001 0.507255,-10e-7 115.492737,-2.000001 115.492737,-2.000001 v -7.75517 c 0,0 -115.04884,-1.79485 -115.524416,-1.79485 z" /></clipPath></defs><g
     id="layer1"
     style="display:none"><image
       width="224.89583"
       height="62.706249"
       preserveAspectRatio="none"
       xlink:href="../../../OneDrive/Pictures/Art%20Assets/0147492310_fen_ins_frt_1_rr.avif"
       id="image1"
       x="0.15372258"
       y="1.0741078"
       style="display:inline" /></g><g
     id="layer3"
     style="display:inline"><path
       style="display:inline;fill:var(--bass-body);fill-opacity:1;stroke-width:0.264583"
       d="m 1.9999999,37 c 0,-1.999999 0,-9.000001 0,-9.000001 C 1.9999999,-1 23.999999,1 24.999999,1 c 10,0 20,9.754213 30.999999,9.754213 11,0 15,-5.5353034 28.999998,-5.5353034 C 97.999997,5.2189096 99.385399,11 99.385399,13 c -0.205633,4.421424 -9.385403,4 -9.385403,4 0,0 -9.303805,0.691339 -9.303805,6.34567 0,1.654331 1.773891,3.104309 1.773891,3.104309 V 38 h -9.470086 c 0,0 -3.317475,-10e-7 -3.317475,4 0,9.000001 12.317475,5.000001 12.317475,10.999999 0,5.999998 -8.999998,6.000001 -9.999998,6.000001 -9,10e-7 -14,-4.864655 -19.000001,-4.864655 -3.999998,-0.135344 -17.999998,9.645012 -28.361368,9.645012 -1.36137,0 -22.6386291,2.219644 -22.6386291,-26.780357 z"
       id="path1" /></g><g
     id="layer4"
     style="display:inline"><path
       style="fill:var(--bass-guard);fill-opacity:1;stroke-width:0.265;stroke:#000000;stroke-opacity:1;stroke-dasharray:none"
       d="M 31.549914,43.000001 V 24 c 0,-4.536904 4.962806,-6.530344 8.450085,-6.530344 10,0 11,5.052421 25.999998,5.052421 C 73.155258,22.522077 74.269646,20.8 76.1,20.8 c 1.133468,0 1.899998,1.144566 1.899998,2.2 0,1.055434 -2,3.223016 -2,3.223016 -2.91567,4.446206 -8,11.776984 -8,11.776984 0,0 -1.304872,10e-7 -1.304872,4 0,7.849322 8.304308,10.398145 10.304872,10.398145 1.373329,0 2.291224,0.07681 2.291224,0.915227 0,0.783279 -1.291224,2.912631 -7.291224,2.912631 -9,0 -12.494209,-4.957392 -18.000001,-4.957392 -8.999998,0 -17.999998,9.731391 -31.999998,9.731391 -11.9999993,0 -15.6171598,-10.000001 -15.6171598,-12.000003 0,0 -0.3828393,-1.920621 1.6171606,-1.920621 3.0000002,0 3.9999992,4.594545 13.9999992,4.594545 10,0 9.549915,-8.673922 9.549915,-8.673922 z"
       id="path2" /></g><g
     id="layer2" /><g
     id="layer5"
     style="display:inline"><rect
       style="display:inline;fill:var(--bass-nut-plate);fill-opacity:1;stroke-width:0.264583"
       id="rect2"
       width="10.535196"
       height="15.450619"
       x="5.9999995"
       y="24.549381" /></g><g
     id="layer9"
     style="display:inline"><g
       id="g85"
       clip-path="url(#clipPath85)"
       style="display:inline"><g
         id="g84"><path
           style="display:inline;fill:var(--bass-neck);fill-opacity:1;stroke-width:0.264583"
           d="m 65.475574,26.449979 c -0.475576,0 -1.441223,0.550018 -1.475576,5.55002 -0.03435,5.000002 1,6.000002 1.507255,6.000001 0.507255,-10e-7 115.492737,-2.000001 115.492737,-2.000001 v -7.75517 c 0,0 -115.04884,-1.79485 -115.524416,-1.79485 z"
           id="path4" /></g><g
         id="layer17"
         style="display:inline"><rect
           style="display:inline;fill:var(--bass-fret);fill-opacity:1;stroke-width:0.295813"
           id="rect61"
           width="0.5"
           height="10"
           x="170.29352"
           y="27" /><rect
           style="display:inline;fill:var(--bass-fret);fill-opacity:1;stroke-width:0.295813"
           id="rect62"
           width="0.5"
           height="10"
           x="161.5"
           y="27" /><rect
           style="display:inline;fill:var(--bass-fret);fill-opacity:1;stroke-width:0.295813"
           id="rect63"
           width="0.5"
           height="10"
           x="153.25342"
           y="27" /><rect
           style="display:inline;fill:var(--bass-fret);fill-opacity:1;stroke-width:0.295813"
           id="rect64"
           width="0.5"
           height="10"
           x="145.5"
           y="27" /><rect
           style="display:inline;fill:var(--bass-fret);fill-opacity:1;stroke-width:0.295813"
           id="rect65"
           width="0.5"
           height="10"
           x="138.1232"
           y="27" /><rect
           style="display:inline;fill:var(--bass-fret);fill-opacity:1;stroke-width:0.295813"
           id="rect66"
           width="0.5"
           height="10"
           x="131.1124"
           y="27" /><rect
           style="display:inline;fill:var(--bass-fret);fill-opacity:1;stroke-width:0.295813"
           id="rect67"
           width="0.5"
           height="10"
           x="124.5"
           y="27" /><rect
           style="display:inline;fill:var(--bass-fret);fill-opacity:1;stroke-width:0.310251"
           id="rect68"
           width="0.5"
           height="11"
           x="118.37394"
           y="27" /><rect
           style="display:inline;fill:var(--bass-fret);fill-opacity:1;stroke-width:0.310251"
           id="rect69"
           width="0.5"
           height="11"
           x="112.58386"
           y="27" /><rect
           style="display:inline;fill:var(--bass-fret);fill-opacity:1;stroke-width:0.337279"
           id="rect70"
           width="0.5"
           height="13"
           x="107.07375"
           y="26" /><rect
           style="display:inline;fill:var(--bass-fret);fill-opacity:1;stroke-width:0.337279"
           id="rect71"
           width="0.5"
           height="13"
           x="101.75"
           y="26" /><rect
           style="display:inline;fill:var(--bass-fret);fill-opacity:1;stroke-width:0.337279"
           id="rect72"
           width="0.5"
           height="13"
           x="97.014343"
           y="26" /><rect
           style="display:inline;fill:var(--bass-fret);fill-opacity:1;stroke-width:0.337279"
           id="rect73"
           width="0.5"
           height="13"
           x="92.326202"
           y="26" /><rect
           style="display:inline;fill:var(--bass-fret);fill-opacity:1;stroke-width:0.337279"
           id="rect74"
           width="0.5"
           height="13"
           x="88"
           y="26" /><rect
           style="display:inline;fill:var(--bass-fret);fill-opacity:1;stroke-width:0.337279"
           id="rect75"
           width="0.5"
           height="13"
           x="83.75"
           y="26" /><rect
           style="display:inline;fill:var(--bass-fret);fill-opacity:1;stroke-width:0.337279"
           id="rect76"
           width="0.5"
           height="13"
           x="79.901291"
           y="26" /><rect
           style="display:inline;fill:var(--bass-fret);fill-opacity:1;stroke-width:0.337279"
           id="rect77"
           width="0.5"
           height="13"
           x="76.234718"
           y="26" /><rect
           style="display:inline;fill:var(--bass-fret);fill-opacity:1;stroke-width:0.337279"
           id="rect78"
           width="0.5"
           height="13"
           x="72.655258"
           y="26" /><rect
           style="display:inline;fill:var(--bass-fret);fill-opacity:1;stroke-width:0.337279"
           id="rect79"
           width="0.5"
           height="13"
           x="69.4496"
           y="26" /><rect
           style="display:inline;fill:var(--bass-fret);fill-opacity:1;stroke-width:0.337279"
           id="rect80"
           width="0.5"
           height="13"
           x="66.302574"
           y="26" /><rect
           style="display:inline;fill:var(--bass-fret);fill-opacity:1;stroke-width:0.337279"
           id="rect81"
           width="0.5"
           height="13"
           x="66.302574"
           y="26" /></g></g></g><g
     id="g34"
     style="display:inline"><g
       id="g33"
       clip-path="url(#clipPath85)"
       style="display:inline"><g
         id="g12"><path
           style="display:inline;fill:var(--bass-neck);fill-opacity:1;stroke-width:0.264583"
           d="m 65.475574,26.449979 c -0.475576,0 -1.441223,0.550018 -1.475576,5.55002 -0.03435,5.000002 1,6.000002 1.507255,6.000001 0.507255,-10e-7 115.492737,-2.000001 115.492737,-2.000001 v -7.75517 c 0,0 -115.04884,-1.79485 -115.524416,-1.79485 z"
           id="path12" /></g><g
         id="g32"
         style="display:inline"><rect
           style="display:inline;fill:var(--bass-fret);fill-opacity:1;stroke-width:0.295813"
           id="rect12"
           width="0.5"
           height="10"
           x="170.29352"
           y="27" /><rect
           style="display:inline;fill:var(--bass-fret);fill-opacity:1;stroke-width:0.295813"
           id="rect13"
           width="0.5"
           height="10"
           x="161.5"
           y="27" /><rect
           style="display:inline;fill:var(--bass-fret);fill-opacity:1;stroke-width:0.295813"
           id="rect14"
           width="0.5"
           height="10"
           x="153.25342"
           y="27" /><rect
           style="display:inline;fill:var(--bass-fret);fill-opacity:1;stroke-width:0.295813"
           id="rect15"
           width="0.5"
           height="10"
           x="145.5"
           y="27" /><rect
           style="display:inline;fill:var(--bass-fret);fill-opacity:1;stroke-width:0.295813"
           id="rect16"
           width="0.5"
           height="10"
           x="138.1232"
           y="27" /><rect
           style="display:inline;fill:var(--bass-fret);fill-opacity:1;stroke-width:0.295813"
           id="rect17"
           width="0.5"
           height="10"
           x="131.1124"
           y="27" /><rect
           style="display:inline;fill:var(--bass-fret);fill-opacity:1;stroke-width:0.295813"
           id="rect18"
           width="0.5"
           height="10"
           x="124.5"
           y="27" /><rect
           style="display:inline;fill:var(--bass-fret);fill-opacity:1;stroke-width:0.310251"
           id="rect19"
           width="0.5"
           height="11"
           x="118.37394"
           y="27" /><rect
           style="display:inline;fill:var(--bass-fret);fill-opacity:1;stroke-width:0.310251"
           id="rect20"
           width="0.5"
           height="11"
           x="112.58386"
           y="27" /><rect
           style="display:inline;fill:var(--bass-fret);fill-opacity:1;stroke-width:0.337279"
           id="rect21"
           width="0.5"
           height="13"
           x="107.07375"
           y="26" /><rect
           style="display:inline;fill:var(--bass-fret);fill-opacity:1;stroke-width:0.337279"
           id="rect22"
           width="0.5"
           height="13"
           x="101.75"
           y="26" /><rect
           style="display:inline;fill:var(--bass-fret);fill-opacity:1;stroke-width:0.337279"
           id="rect23"
           width="0.5"
           height="13"
           x="97.014343"
           y="26" /><rect
           style="display:inline;fill:var(--bass-fret);fill-opacity:1;stroke-width:0.337279"
           id="rect24"
           width="0.5"
           height="13"
           x="92.326202"
           y="26" /><rect
           style="display:inline;fill:var(--bass-fret);fill-opacity:1;stroke-width:0.337279"
           id="rect25"
           width="0.5"
           height="13"
           x="88"
           y="26" /><rect
           style="display:inline;fill:var(--bass-fret);fill-opacity:1;stroke-width:0.337279"
           id="rect26"
           width="0.5"
           height="13"
           x="83.75"
           y="26" /><rect
           style="display:inline;fill:var(--bass-fret);fill-opacity:1;stroke-width:0.337279"
           id="rect27"
           width="0.5"
           height="13"
           x="79.901291"
           y="26" /><rect
           style="display:inline;fill:var(--bass-fret);fill-opacity:1;stroke-width:0.337279"
           id="rect28"
           width="0.5"
           height="13"
           x="76.234718"
           y="26" /><rect
           style="display:inline;fill:var(--bass-fret);fill-opacity:1;stroke-width:0.337279"
           id="rect29"
           width="0.5"
           height="13"
           x="72.655258"
           y="26" /><rect
           style="display:inline;fill:var(--bass-fret);fill-opacity:1;stroke-width:0.337279"
           id="rect30"
           width="0.5"
           height="13"
           x="69.4496"
           y="26" /><rect
           style="display:inline;fill:var(--bass-fret);fill-opacity:1;stroke-width:0.337279"
           id="rect31"
           width="0.5"
           height="13"
           x="66.302574"
           y="26" /><rect
           style="display:inline;fill:var(--bass-fret);fill-opacity:1;stroke-width:0.337279"
           id="rect32"
           width="0.5"
           height="13"
           x="66.302574"
           y="26" /></g></g></g><g
     id="layer8"
     style="display:inline"><path
       style="display:inline;fill:var(--bass-neck);fill-opacity:1;stroke-width:0.264583"
       d="m 180.99999,35.999999 c 0,0 2,2e-6 4,2e-6 1.63685,0 5,2 5,4.999999 13.09435,-0.102806 13.29674,-3.414893 19.14837,-3.414893 5.85163,0 2.85163,3.902885 9.20589,3.96458 1.99835,0.0194 6.64574,-1.549686 6.64574,-6.549686 0,-5 -5,-6.000001 -5,-6.000001 0,0 -28.81795,-6.578848 -33,-6.578848 -4.18204,0 -2,5.844795 -6,5.823677 z"
       id="path5" /></g><g
     id="layer6"
     style="display:inline"><rect
       style="fill:var(--bass-pickup);fill-opacity:1;stroke-width:0.25711"
       id="rect3"
       width="5.5"
       height="10.5"
       x="40.5"
       y="24" /><rect
       style="fill:var(--bass-pickup);fill-opacity:1;stroke-width:0.266411"
       id="rect4"
       width="5.5"
       height="10.5"
       x="35"
       y="31" /></g><g
     id="layer11"><g
       id="g52"><g
         id="g49"
         transform="rotate(15,176,16.230498)"><ellipse
           style="fill:var(--bass-tuner-btn);fill-opacity:0.992157;stroke-width:0.264583"
           id="ellipse47"
           cx="221.99692"
           cy="13.984517"
           rx="1.9999999"
           ry="2" /><ellipse
           style="fill:var(--bass-tuner-btn);fill-opacity:0.992157;stroke-width:0.264583"
           id="ellipse48"
           cx="219.99692"
           cy="12.984517"
           rx="1.9999999"
           ry="2" /><ellipse
           style="display:inline;fill:var(--bass-tuner-btn);fill-opacity:0.992157;stroke-width:0.264583"
           id="ellipse49"
           cx="217.99692"
           cy="13.984517"
           rx="1.9999999"
           ry="2" /><path
           style="fill:var(--bass-tuner-btn);fill-opacity:0.992157;stroke-width:0.264583"
           d="m 217.99691,15.984518 c 1.00001,0 1.00001,1 2,1 0.99999,0 1.03386,-1 2,-1 0,-1 0,-1 0,-1 h -4 z"
           id="path49" /></g><g
         id="g51"
         transform="rotate(15,176,16.230498)"><ellipse
           style="fill:var(--bass-tuner-pin);fill-opacity:0.996078;stroke-width:0.264583"
           id="ellipse50"
           cx="219.99692"
           cy="15.945513"
           rx="0.49999997"
           ry="0.5" /><rect
           style="fill:var(--bass-tuner-pin);fill-opacity:0.996078;stroke-width:0.264583"
           id="rect50"
           width="1.00001"
           height="1.5000004"
           x="219.49692"
           y="15.945513" /><ellipse
           style="fill:var(--bass-tuner-pin);fill-opacity:0.996078;stroke-width:0.264583"
           id="ellipse51"
           cx="219.99692"
           cy="15.945513"
           rx="0.49999997"
           ry="0.5" /><rect
           style="fill:var(--bass-tuner-pin);fill-opacity:0.996078;stroke-width:0.264583"
           id="rect51"
           width="1.00001"
           height="1.5000004"
           x="219.49692"
           y="15.945513" /></g><g
         id="g60"><ellipse
           style="fill:var(--bass-tuner-housing);fill-opacity:1;stroke-width:0.254709"
           id="ellipse59"
           cx="215.64124"
           cy="33.291183"
           rx="1.9999977"
           ry="2" /><ellipse
           style="fill:var(--bass-tuner-inner);fill-opacity:1;stroke-width:0.127293"
           id="ellipse60"
           cx="215.64026"
           cy="33.291183"
           rx="0.99902499"
           ry="1.0000001" /></g></g><g
       id="g47"><g
         id="g44"
         transform="rotate(15,176,16.230498)"><ellipse
           style="fill:var(--bass-tuner-btn);fill-opacity:0.992157;stroke-width:0.264583"
           id="ellipse42"
           cx="212.52541"
           cy="14.451851"
           rx="1.9999999"
           ry="2" /><ellipse
           style="fill:var(--bass-tuner-btn);fill-opacity:0.992157;stroke-width:0.264583"
           id="ellipse43"
           cx="210.52541"
           cy="13.451851"
           rx="1.9999999"
           ry="2" /><ellipse
           style="display:inline;fill:var(--bass-tuner-btn);fill-opacity:0.992157;stroke-width:0.264583"
           id="ellipse44"
           cx="208.52541"
           cy="14.451851"
           rx="1.9999999"
           ry="2" /><path
           style="fill:var(--bass-tuner-btn);fill-opacity:0.992157;stroke-width:0.264583"
           d="m 208.52539,16.451851 c 1.00001,0 1.00001,1 2,1 0.99999,0 1.03386,-1 2,-1 0,-1 0,-1 0,-1 h -4 z"
           id="path44" /></g><g
         id="g46"
         transform="rotate(15,176,16.230498)"><ellipse
           style="fill:var(--bass-tuner-pin);fill-opacity:0.996078;stroke-width:0.264583"
           id="ellipse45"
           cx="210.52541"
           cy="16.412848"
           rx="0.49999997"
           ry="0.5" /><rect
           style="fill:var(--bass-tuner-pin);fill-opacity:0.996078;stroke-width:0.264583"
           id="rect45"
           width="1.00001"
           height="1.5000004"
           x="210.02541"
           y="16.412848" /><ellipse
           style="fill:var(--bass-tuner-pin);fill-opacity:0.996078;stroke-width:0.264583"
           id="ellipse46"
           cx="210.52541"
           cy="16.412848"
           rx="0.49999997"
           ry="0.5" /><rect
           style="fill:var(--bass-tuner-pin);fill-opacity:0.996078;stroke-width:0.264583"
           id="rect46"
           width="1.00001"
           height="1.5000004"
           x="210.02541"
           y="16.412848" /></g><g
         id="g58"><ellipse
           style="fill:var(--bass-tuner-housing);fill-opacity:1;stroke-width:0.254709"
           id="ellipse57"
           cx="206.36177"
           cy="31.357721"
           rx="1.9999977"
           ry="2" /><ellipse
           style="fill:var(--bass-tuner-inner);fill-opacity:1;stroke-width:0.127293"
           id="ellipse58"
           cx="206.36079"
           cy="31.357721"
           rx="0.99902499"
           ry="1.0000001" /></g></g><g
       id="g42"
       style="display:inline"><g
         id="g39"
         transform="rotate(15,176,16.230498)"><ellipse
           style="fill:var(--bass-tuner-btn);fill-opacity:0.992157;stroke-width:0.264583"
           id="ellipse37"
           cx="203.31442"
           cy="14.849371"
           rx="1.9999999"
           ry="2" /><ellipse
           style="fill:var(--bass-tuner-btn);fill-opacity:0.992157;stroke-width:0.264583"
           id="ellipse38"
           cx="201.31442"
           cy="13.849371"
           rx="1.9999999"
           ry="2" /><ellipse
           style="display:inline;fill:var(--bass-tuner-btn);fill-opacity:0.992157;stroke-width:0.264583"
           id="ellipse39"
           cx="199.31442"
           cy="14.849371"
           rx="1.9999999"
           ry="2" /><path
           style="fill:var(--bass-tuner-btn);fill-opacity:0.992157;stroke-width:0.264583"
           d="m 199.31442,16.849371 c 1.00001,0 1.00001,1 2,1 0.99999,0 1.03386,-1 2,-1 0,-1 0,-1 0,-1 h -4 z"
           id="path39" /></g><g
         id="g41"
         transform="rotate(15,176,16.230498)"><ellipse
           style="fill:var(--bass-tuner-pin);fill-opacity:0.996078;stroke-width:0.264583"
           id="ellipse40"
           cx="201.31442"
           cy="16.810368"
           rx="0.49999997"
           ry="0.5" /><rect
           style="fill:var(--bass-tuner-pin);fill-opacity:0.996078;stroke-width:0.264583"
           id="rect40"
           width="1.00001"
           height="1.5000004"
           x="200.81442"
           y="16.810368" /><ellipse
           style="fill:var(--bass-tuner-pin);fill-opacity:0.996078;stroke-width:0.264583"
           id="ellipse41"
           cx="201.31442"
           cy="16.810368"
           rx="0.49999997"
           ry="0.5" /><rect
           style="fill:var(--bass-tuner-pin);fill-opacity:0.996078;stroke-width:0.264583"
           id="rect41"
           width="1.00001"
           height="1.5000004"
           x="200.81442"
           y="16.810368" /></g><g
         id="g56"><ellipse
           style="fill:var(--bass-tuner-housing);fill-opacity:1;stroke-width:0.254709"
           id="ellipse55"
           cx="197.22594"
           cy="29.5112"
           rx="1.9999977"
           ry="2" /><ellipse
           style="fill:var(--bass-tuner-inner);fill-opacity:1;stroke-width:0.127293"
           id="ellipse56"
           cx="197.22496"
           cy="29.5112"
           rx="0.99902499"
           ry="1.0000001" /></g></g><g
       id="layer14"
       style="display:inline"><g
         id="layer12"
         transform="rotate(15,176,16.230498)"><ellipse
           style="fill:var(--bass-tuner-btn);fill-opacity:0.992157;stroke-width:0.264583"
           id="path7"
           cx="193.98094"
           cy="15.316241"
           rx="1.9999999"
           ry="2" /><ellipse
           style="fill:var(--bass-tuner-btn);fill-opacity:0.992157;stroke-width:0.264583"
           id="ellipse7"
           cx="191.98094"
           cy="14.316241"
           rx="1.9999999"
           ry="2" /><ellipse
           style="display:inline;fill:var(--bass-tuner-btn);fill-opacity:0.992157;stroke-width:0.264583"
           id="ellipse8"
           cx="189.98094"
           cy="15.316241"
           rx="1.9999999"
           ry="2" /><path
           style="fill:var(--bass-tuner-btn);fill-opacity:0.992157;stroke-width:0.264583"
           d="m 189.98094,17.316241 c 1.00001,0 1.00001,1 2,1 0.99999,0 1.03386,-1 2,-1 0,-1 0,-1 0,-1 h -4 z"
           id="path8" /></g><g
         id="layer13"
         transform="rotate(15,176,16.230498)"><ellipse
           style="fill:var(--bass-tuner-pin);fill-opacity:0.996078;stroke-width:0.264583"
           id="path9"
           cx="191.98094"
           cy="17.277239"
           rx="0.49999997"
           ry="0.5" /><rect
           style="fill:var(--bass-tuner-pin);fill-opacity:0.996078;stroke-width:0.264583"
           id="rect9"
           width="1.00001"
           height="1.5000004"
           x="191.48094"
           y="17.277239" /><ellipse
           style="fill:var(--bass-tuner-pin);fill-opacity:0.996078;stroke-width:0.264583"
           id="ellipse36"
           cx="191.98094"
           cy="17.277239"
           rx="0.49999997"
           ry="0.5" /><rect
           style="fill:var(--bass-tuner-pin);fill-opacity:0.996078;stroke-width:0.264583"
           id="rect36"
           width="1.00001"
           height="1.5000004"
           x="191.48094"
           y="17.277239" /></g><g
         id="g54"><ellipse
           style="fill:var(--bass-tuner-housing);fill-opacity:1;stroke-width:0.254709"
           id="ellipse53"
           cx="188.15776"
           cy="27.675217"
           rx="1.9999977"
           ry="2" /><ellipse
           style="fill:var(--bass-tuner-inner);fill-opacity:1;stroke-width:0.127293"
           id="ellipse54"
           cx="188.15678"
           cy="27.675217"
           rx="0.99902499"
           ry="1.0000001" /></g></g></g><g
     id="layer7"><path
       style="fill:var(--bass-body);stroke:var(--bass-string);stroke-width:0.264999;stroke-opacity:1"
       d="M 180.50069,35.166043 6.2205181,37.921091"
       id="path11" /><path
       style="fill:var(--bass-body);stroke:var(--bass-string);stroke-width:0.264999;stroke-opacity:1"
       d="M 180.5,33.250949 5.9977988,34.158099"
       id="path10" /><path
       style="fill:var(--bass-body);stroke:var(--bass-string);stroke-width:0.264999;stroke-opacity:1"
       d="M 180.5,31.058926 5.998316,30.377878"
       id="path6" /><path
       style="fill:var(--bass-body);stroke:var(--bass-string);stroke-width:0.264999;stroke-opacity:1"
       d="M 180.5,28.871994 5.9999996,26.654516"
       id="path3" /></g><g
     id="layer16"
     style="fill:var(--bass-nut);fill-opacity:1"><rect
       style="display:inline;fill:var(--bass-nut);fill-opacity:1;stroke-width:0.264583"
       id="rect60"
       width="0.99999994"
       height="8"
       x="180"
       y="27.999998" /></g><rect
     style="display:inline;fill:var(--bass-nut-cap);stroke:#000000;stroke-width:0.264999;fill-opacity:1;stroke-opacity:0"
     id="rect11"
     width="2.8061011"
     height="15.450618"
     x="5.9999995"
     y="24.549381" /></svg>
